<svg xmlns="http://www.w3.org/2000/svg" version="1.1" xmlns:xlink="http://www.w3.org/1999/xlink" xmlns:svgjs="http://svgjs.dev/svgjs" width="345" height="281" viewBox="0 0 120 120" style="background: rgb(246, 252, 255);"><svg viewBox="0 0 129.99874877929688 135.00021362304688" width="75" height="75" x="22.5" y="22.5" style="fill: rgb(77, 62, 252);"><svg width="131" height="130" viewBox="0 0 131 130" xmlns="http://www.w3.org/2000/svg">
<path d="M65.3903 19.4544C53.3179 19.4544 41.7397 24.25 33.2041 32.7867C24.6674 41.3223 19.8718 52.9002 19.8718 64.9729C19.8718 77.0455 24.6674 88.6234 33.2041 97.159C41.7397 105.696 53.3177 110.491 65.3903 110.491C77.4629 110.491 89.0408 105.696 97.5765 97.159C106.113 88.6234 110.909 77.0455 110.909 64.9729C110.895 52.9052 106.095 41.335 97.5618 32.8015C89.0282 24.2688 77.4579 19.4683 65.3905 19.4546L65.3903 19.4544ZM52.385 88.8158C52.385 89.3906 52.1566 89.9422 51.7502 90.3486C51.3438 90.755 50.7922 90.9834 50.2174 90.9834H37.2122C36.0152 90.9834 35.0446 90.0128 35.0446 88.8158V56.3027C35.0446 55.1057 36.0152 54.1351 37.2122 54.1351H50.2174C50.7922 54.1351 51.3438 54.3635 51.7502 54.7699C52.1566 55.1763 52.385 55.7279 52.385 56.3027V88.8158ZM74.0604 88.8158C74.0604 89.3906 73.8321 89.9422 73.4257 90.3486C73.0193 90.755 72.4677 90.9834 71.8929 90.9834H58.8876C57.6907 90.9834 56.7201 90.0128 56.7201 88.8158V38.9623C56.7201 37.7653 57.6907 36.7948 58.8876 36.7948H71.8929C72.4677 36.7948 73.0193 37.0231 73.4257 37.4295C73.8321 37.836 74.0604 38.3875 74.0604 38.9623V88.8158ZM95.7359 88.8158C95.7359 89.3906 95.5075 89.9422 95.1011 90.3486C94.6947 90.755 94.1431 90.9834 93.5684 90.9834H80.5631C79.3661 90.9834 78.3955 90.0128 78.3955 88.8158V47.6325C78.3955 46.4355 79.3661 45.4649 80.5631 45.4649H93.5684C94.1431 45.4649 94.6947 45.6933 95.1011 46.0997C95.5075 46.5061 95.7359 47.0577 95.7359 47.6325V88.8158Z"></path>
<path d="M115.189 67.1404C114.687 78.8528 110.059 90.0108 102.121 98.6404L112.859 109.384C123.636 97.9002 129.858 82.8832 130.362 67.1406L115.189 67.1404Z"></path>
<path d="M99.0578 101.705C92.2302 107.98 83.7854 112.223 74.6758 113.955C65.5664 115.688 56.1531 114.841 47.4985 111.51C38.8446 108.178 31.2932 102.496 25.6962 95.1024L13.1893 103.76C20.4921 113.591 30.4242 121.159 41.8406 125.592C53.257 130.025 65.6942 131.143 77.7178 128.817C89.7413 126.49 100.864 120.814 109.802 112.443L99.0578 101.705Z"></path>
<path d="M67.5578 15.1736C80.0114 15.7309 91.8053 20.9281 100.621 29.7424C109.435 38.5578 114.632 50.3515 115.19 62.8056H130.363C129.814 46.3235 123.02 30.6664 111.359 19.0038C99.6977 7.34265 84.0403 0.548699 67.5571 0L67.5578 15.1736Z"></path>
<path d="M23.2284 91.5259C16.9861 81.6394 14.4217 69.8708 15.9836 58.282C17.5454 46.6954 23.1345 36.0258 31.7708 28.1444C40.407 20.263 51.5418 15.6712 63.2237 15.1731V0.000247583C47.8312 0.506338 33.1184 6.46226 21.7084 16.8055C10.298 27.1498 2.93103 41.2089 0.920287 56.4778C-1.08954 71.7475 2.38726 87.2347 10.7322 100.178L23.2284 91.5259Z"></path>
</svg></svg><text fill="#4d3efc" font-family="Georgia" font-size="32px" x="60" y="97.5"><tspan dy="0" x="60"></tspan></text><text fill="#8c83ed" font-family="Times New Roman" font-size="16px" x="60" y="97.5"><tspan dy="0" x="60"></tspan></text></svg>